<?xml version="1.0" encoding="UTF-8"?>
<svg version="1.1" xmlns="http://www.w3.org/2000/svg" width="341" height="173">
<path d="M0 0 C0.84961807 -0.00701431 1.69923615 -0.01402863 2.57460022 -0.02125549 C3.96798866 -0.00978989 3.96798866 -0.00978989 5.38952637 0.00190735 C6.3702562 -0.00174332 7.35098602 -0.00539398 8.36143494 -0.00915527 C11.60990606 -0.01727483 14.85788058 -0.00363875 18.10632324 0.01094055 C20.35929362 0.01145899 22.61226445 0.01094193 24.86523438 0.00942993 C29.58970889 0.00951972 34.31401298 0.01996242 39.03845215 0.03804016 C45.10164801 0.06072742 51.16459473 0.06127208 57.22782135 0.05452251 C61.88086165 0.05118484 66.5338449 0.05780885 71.18687439 0.06765175 C73.42284344 0.07150751 75.65881883 0.07265041 77.89479065 0.0710659 C81.01685733 0.07069603 84.13860174 0.08329365 87.26062012 0.0995636 C88.18954575 0.09708618 89.11847137 0.09460876 90.07554626 0.09205627 C91.34997337 0.10268349 91.34997337 0.10268349 92.65014648 0.11352539 C93.75736683 0.1166047 93.75736683 0.1166047 94.88695526 0.11974621 C96.82507324 0.3742218 96.82507324 0.3742218 99.82507324 2.3742218 C101.03125754 5.99277471 100.97264761 9.30418101 100.97033691 13.07099915 C100.97369553 13.85344498 100.97705414 14.63589081 100.98051453 15.44204712 C100.99002169 18.03143395 100.99196756 20.6207561 100.99304199 23.2101593 C100.99625486 25.00993374 100.99961896 26.80970792 101.00312805 28.60948181 C101.00911882 32.38393255 101.01096802 36.15836039 101.01037598 39.93281555 C101.01027439 44.76718287 101.02392358 49.60140321 101.04114819 54.4357357 C101.05227212 58.15380018 101.05429506 61.87182918 101.05376625 65.5899086 C101.05494589 67.37207673 101.05936675 69.1542458 101.06709862 70.93639755 C101.0769059 73.43058788 101.07401752 75.92445984 101.06799316 78.4186554 C101.07361267 79.1533757 101.07923218 79.88809601 101.08502197 80.64508057 C101.06048883 84.64622125 100.77187695 87.84073848 98.82507324 91.3742218 C95.46215278 93.61616878 94.32602439 93.6303655 90.39147949 93.64888 C89.28022705 93.65841202 88.16897461 93.66794403 87.02404785 93.67776489 C85.82401123 93.67685349 84.62397461 93.67594208 83.38757324 93.67500305 C81.54014526 93.68143074 81.54014526 93.68143074 79.65539551 93.68798828 C76.38169192 93.69520816 73.10817172 93.69210186 69.83447266 93.68641663 C67.82699324 93.68672151 65.81980832 93.69676451 63.81237793 93.71040344 C59.96230122 93.73482805 56.11271757 93.73906142 52.26257324 93.73750305 C51.06253662 93.7467128 49.8625 93.75592255 48.62609863 93.76541138 C47.51484619 93.75918259 46.40359375 93.7529538 45.25866699 93.74653625 C43.78998169 93.74748039 43.78998169 93.74748039 42.29162598 93.7484436 C39.4109807 93.31139628 38.56793585 92.65698821 36.82507324 90.3742218 C35.44945799 87.6229913 35.7129825 85.43404747 35.72741699 82.35493469 C35.73072021 81.08924149 35.73402344 79.82354828 35.73742676 78.51950073 C35.74154572 77.8402762 35.74566467 77.16105167 35.74990845 76.46124458 C35.76268428 74.32833988 35.76919249 72.19549755 35.77404785 70.06256104 C35.78741805 64.7565034 35.81143114 59.4505038 35.83544922 54.14448547 C35.85532301 49.67360184 35.8709143 45.20274161 35.88101196 40.73182487 C35.88741717 38.64766119 35.89993288 36.56359444 35.91271973 34.47946167 C35.93171986 27.03601534 35.6322418 19.77498827 34.82507324 12.3742218 C27.56507324 12.3742218 20.30507324 12.3742218 12.82507324 12.3742218 C10.83050671 36.38844492 10.60234215 60.24094465 10.74603271 84.32545471 C10.79012642 91.9530149 10.81885897 99.58062407 10.84207344 107.20827293 C10.85225148 109.85078214 10.86926414 112.49318325 10.8870697 115.13565063 C10.8938876 116.73315846 10.90049652 118.33066719 10.90686035 119.92817688 C10.91359772 120.65774597 10.92033508 121.38731506 10.92727661 122.13899231 C10.93869521 127.14697786 10.93869521 127.14697786 9.82507324 129.3742218 C6.84584731 129.40106168 3.86686029 129.42098217 0.88757324 129.4367218 C0.03743652 129.44510071 -0.8127002 129.45347961 -1.68859863 129.46211243 C-2.49748535 129.46533508 -3.30637207 129.46855774 -4.13977051 129.47187805 C-4.88863525 129.47711487 -5.6375 129.48235168 -6.40905762 129.48774719 C-8.17492676 129.3742218 -8.17492676 129.3742218 -9.17492676 128.3742218 C-9.27658122 125.50545621 -9.31456571 122.66138811 -9.30773926 119.79219055 C-9.30869598 118.90880508 -9.30965271 118.02541962 -9.31063843 117.11526489 C-9.31132165 115.22786895 -9.30945757 113.3404707 -9.30529785 111.45307922 C-9.30007148 108.63962586 -9.30517381 105.8263412 -9.31164551 103.01289368 C-9.31481341 94.33220797 -9.19693451 85.68931639 -8.69055176 77.0226593 C-8.18304396 68.2655878 -8.0458865 59.51478094 -7.96398926 50.74531555 C-7.94967923 49.35643385 -7.93524406 47.96755343 -7.92068481 46.57867432 C-7.86222304 40.85863616 -7.80640357 35.13866153 -7.77355957 29.41841125 C-7.75266099 25.86791965 -7.7174659 22.31781833 -7.67280197 18.76754951 C-7.65186115 16.78060203 -7.64660477 14.79350913 -7.64163208 12.80645752 C-7.62506561 11.60993057 -7.60849915 10.41340363 -7.59143066 9.18061829 C-7.58334381 8.12841599 -7.57525696 7.07621368 -7.56692505 5.99212646 C-6.87333005 1.3600512 -4.49612203 -0.00102173 0 0 Z M55.82507324 12.3742218 C54.72105082 15.68628906 54.69145394 18.16117465 54.67980957 21.64985657 C54.67342972 22.94452347 54.66704987 24.23919037 54.66047668 25.5730896 C54.65894836 26.9872687 54.65783421 28.40144831 54.65710449 29.81562805 C54.65389169 31.26386549 54.6505276 32.7121026 54.64701843 34.16033936 C54.64103236 37.19412489 54.6391781 40.22788195 54.63977051 43.26167297 C54.63987233 47.15470777 54.62619681 51.04756102 54.6089983 54.94055271 C54.59789958 57.93019455 54.59585061 60.91979211 54.59638023 63.90945244 C54.5951978 65.34521551 54.59076131 66.78097965 54.58304787 68.21672249 C54.57328735 70.22045176 54.57738002 72.2242342 54.58215332 74.22798157 C54.5807283 75.36920975 54.57930328 76.51043793 54.57783508 77.68624878 C54.55013264 80.52552694 54.55013264 80.52552694 56.82507324 82.3742218 C59.3488498 82.65230397 59.3488498 82.65230397 62.27038574 82.5695343 C63.34675293 82.56308899 64.42312012 82.55664368 65.53210449 82.55000305 C66.66003418 82.53324524 67.78796387 82.51648743 68.95007324 82.4992218 C70.0857373 82.49019836 71.22140137 82.48117493 72.39147949 82.47187805 C75.20288623 82.44825279 78.01387622 82.41531193 80.82507324 82.3742218 C82.44466889 79.1350305 82.2190582 75.56577687 82.38757324 71.9992218 C82.45017334 70.69235413 82.45017334 70.69235413 82.51403809 69.35908508 C83.18685087 53.5383731 83.21053809 37.63004911 82.45007324 21.8117218 C82.40390869 20.72383362 82.40390869 20.72383362 82.35681152 19.6139679 C82.14648289 16.05059939 81.85629053 14.42104774 79.82507324 11.3742218 C77.53606408 10.9417831 77.53606408 10.9417831 74.88757324 11.0460968 C73.91046387 11.05125305 72.93335449 11.0564093 71.92663574 11.0617218 C70.90312012 11.0823468 69.87960449 11.1029718 68.82507324 11.1242218 C67.2897998 11.13195618 67.2897998 11.13195618 65.72351074 11.1398468 C60.60911866 10.98533538 60.60911866 10.98533538 55.82507324 12.3742218 Z " fill="#E4E4E4" transform="translate(185.1749267578125,23.625778198242188)"/>
<path d="M0 0 C1.1653125 -0.00128906 2.330625 -0.00257812 3.53125 -0.00390625 C4.7584375 -0.00003906 5.985625 0.00382812 7.25 0.0078125 C9.09078125 0.00201172 9.09078125 0.00201172 10.96875 -0.00390625 C12.71671875 -0.00197266 12.71671875 -0.00197266 14.5 0 C15.57765625 0.00112793 16.6553125 0.00225586 17.765625 0.00341797 C20.25 0.1328125 20.25 0.1328125 21.25 1.1328125 C21.51490093 6.34253078 21.14817336 11.11280863 20.3125 16.2578125 C19.29913639 22.87362922 18.86500214 29.44830431 18.5625 36.1328125 C18.51424072 37.1242627 18.46598145 38.11571289 18.41625977 39.13720703 C18.22246962 43.95451057 18.18495651 48.39216781 19.25 53.1328125 C23.0359066 54.39478137 26.58770204 54.2682734 30.53125 54.2734375 C32.19402421 54.29175655 33.85678504 54.31132602 35.51953125 54.33203125 C38.14004265 54.36106602 40.75968803 54.3828143 43.38037109 54.38330078 C45.91061172 54.38662692 48.43885515 54.421111 50.96875 54.4609375 C51.75318481 54.4538678 52.53761963 54.4467981 53.3458252 54.43951416 C55.56054688 54.48925781 55.56054688 54.48925781 59.25 55.1328125 C62.32233302 58.94973815 62.62138772 62.01083479 62.60644531 66.8190918 C62.60848969 67.47009857 62.61053406 68.12110535 62.61264038 68.7918396 C62.61563378 70.93052829 62.59721992 73.06843501 62.578125 75.20703125 C62.57506545 76.69724843 62.57319082 78.18746847 62.57244873 79.6776886 C62.5678552 82.79378276 62.55346275 85.90961712 62.53125 89.02563477 C62.50289461 93.02394905 62.49203003 97.0220596 62.4875679 101.0204649 C62.48341696 104.09418277 62.4736034 107.16785934 62.46169281 110.24155617 C62.45598927 111.71638471 62.45123084 113.19121721 62.44742584 114.66605186 C62.44056972 116.722345 62.42694241 118.77847546 62.41113281 120.8347168 C62.40430481 122.00544235 62.39747681 123.17616791 62.39044189 124.38237 C62.25 127.1328125 62.25 127.1328125 61.25 129.1328125 C55.31 129.1328125 49.37 129.1328125 43.25 129.1328125 C42.51265988 125.44611189 42.12993274 122.75276883 42.15234375 119.10229492 C42.15564697 118.12745651 42.1589502 117.1526181 42.16235352 116.14823914 C42.17065186 115.10545303 42.1789502 114.06266693 42.1875 112.98828125 C42.19317993 111.36265007 42.19317993 111.36265007 42.19897461 109.70417786 C42.21528448 105.07739613 42.24336968 100.45070347 42.27050781 95.82397461 C42.28865472 92.44124769 42.30071193 89.05853537 42.3125 85.67578125 C42.32079834 84.63906784 42.32909668 83.60235443 42.33764648 82.53422546 C42.34094971 81.54993057 42.34425293 80.56563568 42.34765625 79.55151367 C42.35551147 78.2684156 42.35551147 78.2684156 42.36352539 76.95939636 C42.21793379 73.33441997 41.69998548 69.73269636 41.25 66.1328125 C33.66 66.1328125 26.07 66.1328125 18.25 66.1328125 C18.25523682 68.00573975 18.26047363 69.87866699 18.26586914 71.80834961 C18.28196688 77.98302596 18.29347233 84.15769736 18.30181217 90.33238888 C18.30704014 94.07764287 18.31413622 97.82287426 18.32543945 101.56811523 C18.33627141 105.17962937 18.34227749 108.79112171 18.34487724 112.40265083 C18.34673094 113.78341579 18.35035049 115.1641795 18.35573006 116.54493523 C18.36294447 118.47257202 18.36340809 120.40023057 18.36352539 122.32788086 C18.365746 123.42708359 18.36796661 124.52628632 18.37025452 125.65879822 C18.25 128.1328125 18.25 128.1328125 17.25 129.1328125 C15.77347336 129.23162047 14.29232764 129.26360495 12.8125 129.265625 C11.47058594 129.26755859 11.47058594 129.26755859 10.1015625 129.26953125 C9.16054687 129.26566406 8.21953125 129.26179687 7.25 129.2578125 C6.30898437 129.26167969 5.36796875 129.26554688 4.3984375 129.26953125 C3.50382812 129.26824219 2.60921875 129.26695312 1.6875 129.265625 C0.86121094 129.26449707 0.03492188 129.26336914 -0.81640625 129.26220703 C-2.75 129.1328125 -2.75 129.1328125 -3.75 128.1328125 C-3.83856677 126.30206356 -3.85688657 124.46787652 -3.84765625 122.63500977 C-3.84435303 121.46031631 -3.8410498 120.28562286 -3.83764648 119.07533264 C-3.82934814 117.79621506 -3.8210498 116.51709747 -3.8125 115.19921875 C-3.80671559 113.20814261 -3.80093662 111.21706643 -3.79548645 109.22598934 C-3.78229732 105.00464081 -3.76015573 100.78332966 -3.73962402 96.56201172 C-3.72308477 93.09195746 -3.70846818 89.62192149 -3.69897461 86.15184021 C-3.69140479 83.54428885 -3.67929666 80.93674619 -3.66235352 78.32923889 C-3.65905029 77.15139328 -3.65574707 75.97354767 -3.65234375 74.76000977 C-3.64710693 73.71933853 -3.64187012 72.6786673 -3.63647461 71.60646057 C-3.58251676 69.12966418 -3.58251676 69.12966418 -4.75 67.1328125 C-8.45446553 65.89799066 -11.8943008 65.98723048 -15.75 66.0078125 C-16.47445312 66.00394531 -17.19890625 66.00007813 -17.9453125 65.99609375 C-21.14282879 66.00199323 -23.69582607 66.11475452 -26.75 67.1328125 C-28.00175221 70.28944196 -27.90416935 73.54965554 -27.95532227 76.91113281 C-27.97526749 78.0720343 -27.99521271 79.23293579 -28.01576233 80.42901611 C-28.03247482 81.67705017 -28.04918732 82.92508423 -28.06640625 84.2109375 C-28.08718735 85.49264832 -28.10796844 86.77435913 -28.12937927 88.09490967 C-28.18444747 91.49457522 -28.23392364 94.89429988 -28.28222656 98.29406738 C-28.33255332 101.76641064 -28.38818093 105.23866855 -28.44335938 108.7109375 C-28.55075422 115.51815511 -28.65224027 122.32544989 -28.75 129.1328125 C-31.72922593 129.15965237 -34.70821295 129.17957287 -37.6875 129.1953125 C-38.53763672 129.20369141 -39.38777344 129.21207031 -40.26367188 129.22070312 C-41.07255859 129.22392578 -41.88144531 129.22714844 -42.71484375 129.23046875 C-43.4637085 129.23570557 -44.21257324 129.24094238 -44.98413086 129.24633789 C-46.75 129.1328125 -46.75 129.1328125 -47.75 128.1328125 C-47.86005321 126.00697049 -47.89913565 123.87743428 -47.91113281 121.7487793 C-47.91858017 120.74870346 -47.91858017 120.74870346 -47.92617798 119.72842407 C-47.94083557 117.51294945 -47.94760831 115.29754648 -47.953125 113.08203125 C-47.9588745 111.54604591 -47.96463225 110.0100606 -47.97039795 108.47407532 C-47.98091886 105.24841984 -47.98675404 102.02278937 -47.99023438 98.79711914 C-47.99571454 94.66425966 -48.01972746 90.53173041 -48.04820633 86.39897442 C-48.0668357 83.22395364 -48.07203851 80.04901224 -48.07357025 76.87394142 C-48.0765978 75.35050467 -48.08462982 73.82706935 -48.09775543 72.30368614 C-48.11481916 70.17054598 -48.11293517 68.03821011 -48.10644531 65.9050293 C-48.11009094 64.69115036 -48.11373657 63.47727142 -48.11749268 62.22660828 C-47.71737825 58.85818107 -47.20675639 57.4465602 -44.75 55.1328125 C-41.86807028 54.73118836 -39.35239809 54.57520243 -36.46875 54.59375 C-35.6588562 54.58195709 -34.8489624 54.57016418 -34.01452637 54.55801392 C-31.42615582 54.52269642 -28.83859199 54.51357881 -26.25 54.5078125 C-23.66165032 54.49147616 -21.07366255 54.46944558 -18.48547363 54.43618774 C-16.8751355 54.4165441 -15.26463144 54.40722436 -13.6541748 54.40927124 C-9.82440935 54.37280583 -8.01318478 54.30826902 -4.75 52.1328125 C-4.30086938 50.01107359 -4.30086938 50.01107359 -4.38671875 47.5390625 C-4.38607422 46.59957764 -4.38542969 45.66009277 -4.38476562 44.69213867 C-4.40216797 43.68256104 -4.41957031 42.6729834 -4.4375 41.6328125 C-4.44587891 40.60067627 -4.45425781 39.56854004 -4.46289062 38.50512695 C-4.58503673 30.5870059 -5.30096541 22.83947397 -6.30078125 14.9921875 C-6.84673853 10.30170232 -6.97444454 5.84614792 -6.75 1.1328125 C-4.97550406 -0.64168344 -2.39982739 0.00251178 0 0 Z " fill="#E6E6E6" transform="translate(74.75,23.8671875)"/>
<path d="" fill="#FEFEFE" transform="translate(0,0)"/>
</svg>
