<?xml version="1.0" encoding="UTF-8"?>
<svg version="1.1" xmlns="http://www.w3.org/2000/svg" width="282" height="304">
<path d="M0 0 C93.06 0 186.12 0 282 0 C282 100.32 282 200.64 282 304 C188.94 304 95.88 304 0 304 C0 203.68 0 103.36 0 0 Z " fill="#FEFEFE" transform="translate(0,0)"/>
<path d="M0 0 C18.28294575 12.89977176 32.70690131 31.10872423 37.75 53.25 C37.91483887 53.86504395 38.07967773 54.48008789 38.24951172 55.11376953 C43.61084587 76.38214861 39.76178935 100.90683832 28.74609375 119.74609375 C15.65382709 141.28592049 -3.42938718 156.07266813 -27.9375 162.5625 C-52.84880658 168.47190714 -76.6686624 163.62632914 -98.12109375 150.4921875 C-118.22478633 137.00609107 -132.53408557 116.95483826 -137.359375 93.12109375 C-140.0013085 77.78037107 -139.81028905 60.87597771 -134.25 46.25 C-133.81429687 45.06535156 -133.37859375 43.88070312 -132.9296875 42.66015625 C-123.59369415 19.16712382 -106.09584564 2.31465047 -83.22070312 -7.92480469 C-56.13714668 -19.26554066 -24.53810548 -15.58025733 0 0 Z " fill="#F4D1D1" transform="translate(186.25,80.75)"/>
<path d="M0 0 C0.99 0.30679688 1.98 0.61359375 3 0.9296875 C20.07760322 6.76990558 32.12708021 19.0149831 40 35 C46.2907073 48.69481412 46.26732547 65.63283374 41.125 79.6875 C39.71339998 83.36765217 38.19767198 86.70349203 36 90 C31.69271655 89.53149744 29.26314304 86.76470312 26.32421875 83.86328125 C25.79480179 83.34622116 25.26538483 82.82916107 24.71992493 82.2964325 C23.6057328 81.20177839 22.49563866 80.10293958 21.3894043 79.00024414 C19.69297243 77.3179269 17.97173631 75.66408437 16.24804688 74.00976562 C15.16763866 72.94175276 14.08880693 71.87214227 13.01171875 70.80078125 C12.49413498 70.30991531 11.97655121 69.81904938 11.44328308 69.31330872 C10.02612305 67.8684082 10.02612305 67.8684082 8 65 C8.1057436 61.25551759 8.96162223 59.08136088 10.5625 55.6875 C12.29148584 51.25227546 12.76455131 47.69898387 12 43 C9.61327285 38.22654569 6.51542241 34.84304374 2 32 C-1.53385061 31.15804231 -4.47223917 31.11264912 -8 32 C-11.06269455 33.99569129 -13.539822 36.30617381 -16 39 C-18.85779017 37.70280076 -20.91008536 36.3363174 -23.11621094 34.11083984 C-23.69651062 33.5303891 -24.2768103 32.94993835 -24.87469482 32.35189819 C-25.48838928 31.72788116 -26.10208374 31.10386414 -26.734375 30.4609375 C-27.37240051 29.82008209 -28.01042603 29.17922668 -28.66778564 28.51895142 C-30.69994069 26.47562179 -32.72502218 24.42544018 -34.75 22.375 C-36.1284453 20.9865214 -37.50734636 19.5984951 -38.88671875 18.2109375 C-42.26311894 14.81251303 -45.63319288 11.40792746 -49 8 C-37.47249813 -3.8338271 -15.00949853 -5.09250843 0 0 Z " fill="#FEFDFD" transform="translate(154,97)"/>
<path d="M0 0 C4.73375819 2.14028379 7.94798234 5.46648944 11.625 9.0625 C12.6459375 10.00899414 12.6459375 10.00899414 13.6875 10.97460938 C17.87500354 15.07521808 19.75061285 18.10971263 20.65722656 23.90893555 C23.09673667 38.79098975 38.41063388 53.40143804 50 62 C52.25162472 60.95460281 54.14589161 59.88843583 56.125 58.375 C58 57 58 57 60 57 C61.43432617 58.45336914 61.43432617 58.45336914 63.10546875 60.47265625 C66.96900155 65.01498544 71.08588418 69.23438714 75.3125 73.4375 C76.02728516 74.15615234 76.74207031 74.87480469 77.47851562 75.61523438 C78.16236328 76.29779297 78.84621094 76.98035156 79.55078125 77.68359375 C80.47370972 78.60483032 80.47370972 78.60483032 81.4152832 79.54467773 C82.95375267 81.09170925 82.95375267 81.09170925 85 82 C85 82.66 85 83.32 85 84 C82.81477184 84.96380382 80.62704614 85.92109439 78.4375 86.875 C77.82841797 87.14441406 77.21933594 87.41382813 76.59179688 87.69140625 C62.91896898 93.62353264 45.99541668 94.59317655 31.875 89.31640625 C14.46283829 81.34371808 1.40410118 69.07750235 -5.5 51.0625 C-10.66031434 35.98769284 -8.98260027 19.47620741 -3 5 C-2.04316961 3.30818045 -1.05872124 1.62999605 0 0 Z " fill="#FEFEFE" transform="translate(84,125)"/>
<path d="M0 0 C3.67779061 2.42577679 6.45928192 5.29047694 8.9375 8.9375 C8.9375 9.5975 8.9375 10.2575 8.9375 10.9375 C9.5975 10.9375 10.2575 10.9375 10.9375 10.9375 C11.185 9.9165625 11.185 9.9165625 11.4375 8.875 C13.70376219 4.43690321 16.67373432 1.51426657 20.9375 -1.0625 C24.55360576 -2.14210782 27.32173596 -2.1489006 30.9375 -1.0625 C35.65122143 2.0010602 39.82697852 5.62444593 41.9375 10.9375 C43.36226221 20.75252853 38.46525533 28.71763077 33.11328125 36.63671875 C26.92982168 44.6868831 19.27080011 53.08434873 10.9375 58.9375 C-3.29494648 52.66612518 -15.03262475 36.07749217 -21.2265625 22.359375 C-22.75447005 17.93272696 -22.85742165 13.46313713 -21.4453125 8.9765625 C-17.24949617 0.47353649 -8.95102496 -3.10545764 0 0 Z " fill="#C10404" transform="translate(125.0625,129.0625)"/>
<path d="M0 0 C0.99 0.33 1.98 0.66 3 1 C3.11593506 1.63091553 3.23187012 2.26183105 3.35131836 2.91186523 C3.87600481 5.75450681 4.40667024 8.5959995 4.9375 11.4375 C5.11990234 12.43072266 5.30230469 13.42394531 5.49023438 14.44726562 C5.66748047 15.39150391 5.84472656 16.33574219 6.02734375 17.30859375 C6.27085571 18.62041626 6.27085571 18.62041626 6.51928711 19.95874023 C6.8068839 21.98228064 6.8068839 21.98228064 8 23 C9.98 18.05 11.96 13.1 14 8 C15.32 8.33 16.64 8.66 18 9 C19.046875 10.9609375 19.046875 10.9609375 19.75 13.375 C19.99234375 14.16648438 20.2346875 14.95796875 20.484375 15.7734375 C21 18 21 18 21 21 C21.66 21 22.32 21 23 21 C23.309375 20.360625 23.61875 19.72125 23.9375 19.0625 C25 17 25 17 26 16 C28.33297433 15.95907063 30.66705225 15.95758277 33 16 C31.52267049 19.8947778 29.54120367 20.97645504 26 23 C24.948125 24.0828125 24.948125 24.0828125 23.875 25.1875 C22 27 22 27 19 27 C17.68 24.03 16.36 21.06 15 18 C12.69 23.94 10.38 29.88 8 36 C6.515 35.505 6.515 35.505 5 35 C4.33984375 33.25 4.33984375 33.25 3.9375 31 C3.78410156 30.19046875 3.63070312 29.3809375 3.47265625 28.546875 C3.31667969 27.70640625 3.16070312 26.8659375 3 26 C2.62945887 24.41561724 2.25462897 22.83222985 1.875 21.25 C1.16985205 18.10437907 0.79091933 15.2407504 1 12 C0.34 12 -0.32 12 -1 12 C-1.309375 13.134375 -1.61875 14.26875 -1.9375 15.4375 C-3 19 -3 19 -4 20 C-5.51928038 20.07179964 -7.04167482 20.08392007 -8.5625 20.0625 C-9.38878906 20.05347656 -10.21507813 20.04445312 -11.06640625 20.03515625 C-12.02353516 20.01775391 -12.02353516 20.01775391 -13 20 C-13.66 18.68 -14.32 17.36 -15 16 C-12.03 16 -9.06 16 -6 16 C-5.81824219 15.26394531 -5.63648437 14.52789062 -5.44921875 13.76953125 C-2.95254833 4.07732865 -2.95254833 4.07732865 0 0 Z " fill="#F0C3C3" transform="translate(126,140)"/>
<path d="M0 0 C5.75 -0.125 5.75 -0.125 8 1 C8 1.66 8 2.32 8 3 C5.69 3 3.38 3 1 3 C0.67 2.01 0.34 1.02 0 0 Z " fill="#FBF1F1" transform="translate(112,157)"/>
</svg>
